<?xml version="1.0" standalone="no"?>
<!DOCTYPE svg PUBLIC "-//W3C//DTD SVG 20010904//EN"
 "http://www.w3.org/TR/2001/REC-SVG-20010904/DTD/svg10.dtd">
<svg version="1.0" xmlns="http://www.w3.org/2000/svg"
 width="512.000000pt" height="512.000000pt" viewBox="0 0 512.000000 512.000000"
 preserveAspectRatio="xMidYMid meet">

<g transform="translate(0.000000,512.000000) scale(0.100000,-0.100000)"
fill="#000000" stroke="none">
<path d="M2390 5060 c-869 -58 -1648 -556 -2072 -1325 -145 -264 -239 -541
-290 -858 -26 -161 -31 -519 -9 -687 103 -812 569 -1517 1270 -1922 172 -100
432 -210 500 -212 51 -1 94 20 116 57 18 30 19 50 16 267 -1 129 -3 236 -4
236 -1 1 -38 -4 -82 -12 -263 -43 -497 16 -646 165 -58 58 -76 86 -134 206
-94 196 -149 271 -255 348 -78 56 -120 98 -120 119 0 49 122 66 218 30 123
-47 207 -120 299 -259 125 -190 283 -275 484 -260 90 7 235 51 248 75 5 9 14
41 20 71 15 72 65 174 107 221 l35 38 -28 6 c-15 3 -70 12 -121 21 -52 8 -135
26 -185 39 -463 127 -715 403 -804 879 -25 134 -25 463 0 567 36 149 103 285
195 398 l43 53 -15 47 c-52 161 -46 370 16 564 20 61 24 67 54 73 107 20 352
-68 576 -206 l98 -61 87 20 c204 47 298 57 553 57 256 0 349 -10 553 -57 l88
-20 77 48 c185 116 362 192 499 213 113 17 126 12 151 -67 62 -194 68 -403 15
-565 l-15 -49 30 -31 c44 -47 119 -167 153 -247 53 -125 70 -211 76 -382 16
-461 -123 -822 -398 -1034 -157 -120 -395 -210 -649 -244 -120 -16 -118 -15
-83 -53 46 -48 90 -134 115 -223 20 -74 22 -106 27 -529 7 -492 5 -482 66
-507 47 -20 102 -13 200 26 348 135 622 311 884 569 417 410 678 940 752 1527
22 168 17 526 -9 687 -131 813 -600 1485 -1307 1875 -419 231 -914 340 -1395
308z"/>
</g>
</svg>
